<svg id="visual" viewBox="0 0 900 600" width="900" height="600" xmlns="http://www.w3.org/2000/svg" xmlns:xlink="http://www.w3.org/1999/xlink" version="1.1"><rect x="0" y="0" width="900" height="600" fill="#7ca5ec"></rect><path d="M0 519L25 503C50 487 100 455 150 459.7C200 464.3 250 505.7 300 524.5C350 543.3 400 539.7 450 529.5C500 519.3 550 502.7 600 488.2C650 473.7 700 461.3 750 462.7C800 464 850 479 875 486.5L900 494L900 601L875 601C850 601 800 601 750 601C700 601 650 601 600 601C550 601 500 601 450 601C400 601 350 601 300 601C250 601 200 601 150 601C100 601 50 601 25 601L0 601Z" fill="#0066FF" stroke-linecap="round" stroke-linejoin="miter"></path></svg>